<svg width="400" height="250" viewBox="0 0 400 250" fill="none" xmlns="http://www.w3.org/2000/svg">
<rect x="40" y="180" width="320" height="20" rx="10" fill="#E5975B"/>
<path d="M40 180H360V190H40V180Z" fill="#D48347"/>
<rect x="60" y="80" width="280" height="150" rx="10" fill="#FEF3E7"/>
<g transform="translate(-20 0) rotate(-10 150 150)">
<rect x="100" y="100" width="80" height="100" rx="8" fill="white" stroke="#FDEBDD" stroke-width="2"/>
<rect x="110" y="110" width="60" height="10" rx="2" fill="#FEF3E7"/>
<rect x="110" y="130" width="40" height="60" rx="2" fill="#FEF3E7"/>
</g>
<g transform="translate(-10 0) rotate(-5 150 150)">
<rect x="120" y="95" width="80" height="100" rx="8" fill="white" stroke="#FDEBDD" stroke-width="2"/>
<rect x="130" y="105" width="60" height="10" rx="2" fill="#FEF3E7"/>
<rect x="130" y="125" width="40" height="60" rx="2" fill="#FEF3E7"/>
</g>
<g filter="url(#filter0_d_101_3)">
<rect x="140" y="90" width="120" height="140" rx="8" fill="white" stroke="#F97316" stroke-width="2"/>
<rect x="155" y="110" width="90" height="15" rx="3" fill="#FDEBDD"/>
<rect x="155" y="140" width="60" height="80" rx="3" fill="#FDEBDD"/>
<path d="M225 99L231 105" stroke="#34D399" stroke-width="3" stroke-linecap="round"/>
<path d="M231 99L225 105" stroke="#34D399" stroke-width="3" stroke-linecap="round"/>
</g>
<g transform="translate(10 0) rotate(5 250 150)">
<rect x="200" y="95" width="80" height="100" rx="8" fill="white" stroke="#FDEBDD" stroke-width="2"/>
<rect x="210" y="105" width="60" height="10" rx="2" fill="#FEF3E7"/>
<rect x="210" y="125" width="40" height="60" rx="2" fill="#FEF3E7"/>
</g>
<g transform="translate(20 0) rotate(10 250 150)">
<rect x="220" y="100" width="80" height="100" rx="8" fill="white" stroke="#FDEBDD" stroke-width="2"/>
<rect x="230" y="110" width="60" height="10" rx="2" fill="#FEF3E7"/>
<rect x="230" y="130" width="40" height="60" rx="2" fill="#FEF3E7"/>
</g>
<path d="M310 75L315 70" stroke="#FDBA74" stroke-width="2" stroke-linecap="round"/>
<path d="M315 75L310 70" stroke="#FDBA74" stroke-width="2" stroke-linecap="round"/>
<path d="M90 75L95 70" stroke="#FDBA74" stroke-width="2" stroke-linecap="round"/>
<path d="M95 75L90 70" stroke="#FDBA74" stroke-width="2" stroke-linecap="round"/>
<defs>
<filter id="filter0_d_101_3" x="135" y="86" width="130" height="150" filterUnits="userSpaceOnUse" color-interpolation-filters="sRGB">
<feFlood flood-opacity="0" result="BackgroundImageFix"/>
<feColorMatrix in="SourceAlpha" type="matrix" values="0 0 0 0 0 0 0 0 0 0 0 0 0 0 0 0 0 0 127 0" result="hardAlpha"/>
<feOffset dy="1"/>
<feGaussianBlur stdDeviation="2"/>
<feColorMatrix type="matrix" values="0 0 0 0 0.9125 0 0 0 0 0.534219 0 0 0 0 0.283333 0 0 0 0.2 0"/>
<feBlend mode="normal" in2="BackgroundImageFix" result="effect1_dropShadow_101_3"/>
<feBlend mode="normal" in="SourceGraphic" in2="effect1_dropShadow_101_3" result="shape"/>
</filter>
</defs>
</svg>